<svg xmlns="http://www.w3.org/2000/svg" viewBox="0 0 180 180" fill="none">
  <rect width="180" height="180" rx="40" fill="#F4FBF2"/>
  <circle cx="114" cy="58" r="34" stroke="#2BBFD1" stroke-width="8"/>
  <path d="M134 79l16 16" stroke="#2BBFD1" stroke-width="8" stroke-linecap="round"/>
  <rect x="38" y="42" width="34" height="76" rx="2" fill="#F6FBF4" stroke="#0F5B24" stroke-width="6"/>
  <path d="M46 48h18M46 56h12M46 64h18M46 72h12M46 80h18M46 88h12M46 96h18M46 104h12" stroke="#0F5B24" stroke-width="4" stroke-linecap="round"/>
  <path d="M71 109V48c19 0 31 5 40 14 8-4 17-6 28-6v15c-11 0-21 2-28 10v28c0 17 11 27 29 27v15c-17 0-29-5-38-16-8 10-19 16-33 16v-15c18 0 29-11 29-27Z" fill="#F6FBF4" stroke="#0F5B24" stroke-width="8" stroke-linejoin="round"/>
  <path d="M92 88c14-25 32-33 47-33-1 16-5 39-31 53-7 4-17 4-26 2 4-7 7-14 10-22Z" fill="#6BCB5A" stroke="#0F5B24" stroke-width="6" stroke-linejoin="round"/>
  <path d="M115 61c-8 8-19 24-36 58" stroke="#F6FBF4" stroke-width="6" stroke-linecap="round"/>
  <circle cx="113" cy="67" r="2.8" fill="#0F5B24"/>
  <circle cx="122" cy="63" r="2.8" fill="#0F5B24"/>
  <circle cx="122" cy="74" r="2.8" fill="#0F5B24"/>
  <circle cx="131" cy="68" r="2.8" fill="#0F5B24"/>
  <circle cx="129" cy="79" r="2.8" fill="#0F5B24"/>
  <path d="M116 106c9 0 17 7 17 16 0 10-8 18-18 18-8 0-15-4-18-11" fill="#6BCB5A" stroke="#0F5B24" stroke-width="6" stroke-linecap="round" stroke-linejoin="round"/>
  <path d="M131 100c2 4 2 9 0 13" stroke="#0F5B24" stroke-width="6" stroke-linecap="round"/>
  <path d="M125 122c-3 2-5 5-5 9" stroke="#0F5B24" stroke-width="4" stroke-linecap="round"/>
</svg>
